<svg width="1440" height="1354" viewBox="0 0 1440 1354" fill="none" xmlns="http://www.w3.org/2000/svg">
<g opacity="0.1" clip-path="url(#clip0_1156_1028)">
<rect width="2506.2" height="958.638" transform="translate(-757.527 407.875) rotate(-9.36634)" fill="white"/>
<rect width="2506.2" height="958.638" transform="translate(-757.527 407.875) rotate(-9.36634)" fill="black" fill-opacity="0.2"/>
<g filter="url(#filter0_d_1156_1028)">
<path d="M-619.126 1246.95C-623.071 1223.68 -609.65 881.905 -485.31 598.925C-373.696 345.267 -114.144 200.698 189.633 383.011C515.119 578.405 795.873 598.053 1022.25 541.056C1245.67 484.546 1394.25 314.275 1460.97 205.7C1605.79 -28.9318 1819.72 116.2 1744.58 424.908C1709.12 568.511 1615.65 608.66 1453.68 623.561C1284.38 639.136 1034.25 606.075 687.307 673.45C352.717 738.682 -23.8087 895.346 -235.534 1094.76C-460.861 1307.16 -586.092 1450 -619.126 1246.95Z" fill="url(#paint0_linear_1156_1028)"/>
<path d="M-619.126 1246.95C-623.071 1223.68 -609.65 881.905 -485.31 598.925C-373.696 345.267 -114.144 200.698 189.633 383.011C515.119 578.405 795.873 598.053 1022.25 541.056C1245.67 484.546 1394.25 314.275 1460.97 205.7C1605.79 -28.9318 1819.72 116.2 1744.58 424.908C1709.12 568.511 1615.65 608.66 1453.68 623.561C1284.38 639.136 1034.25 606.075 687.307 673.45C352.717 738.682 -23.8087 895.346 -235.534 1094.76C-460.861 1307.16 -586.092 1450 -619.126 1246.95Z" fill="black" fill-opacity="0.2"/>
<path d="M-618.632 1246.87L-618.633 1246.86C-619.117 1244.01 -619.341 1236.18 -619.109 1224.04C-618.877 1211.92 -618.191 1195.57 -616.868 1175.7C-614.223 1135.98 -609.031 1082.25 -599.83 1020.4C-581.429 896.7 -546.998 740.56 -484.852 599.126C-429.086 472.391 -336.381 372.948 -219.72 327.945C-103.073 282.949 37.5988 292.35 189.376 383.44C514.969 578.897 795.858 598.573 1022.38 541.54L1022.25 541.057L1022.38 541.54C1245.97 484.987 1394.63 314.596 1461.4 205.962C1497.57 147.364 1538.01 112.537 1577.12 98.0225C1616.21 83.5145 1654.01 89.2846 1684.96 111.955C1746.92 157.321 1781.64 270.518 1744.09 424.79C1726.39 496.489 1694.22 542.305 1646.31 572.073C1598.37 601.859 1534.61 615.614 1453.64 623.063C1398.55 628.13 1334.92 628.047 1262.15 627.952C1223.12 627.9 1181.47 627.846 1137.1 628.58C1010.02 630.684 860.72 639.264 687.212 672.96C352.57 738.202 -24.0574 894.893 -235.877 1094.39L-235.534 1094.76L-235.877 1094.4C-256.388 1113.73 -276.068 1132.49 -294.922 1150.46C-327.858 1181.85 -358.278 1210.84 -386.222 1236.33C-430.164 1276.42 -467.94 1307.81 -499.691 1326.21C-531.468 1344.64 -557.032 1349.96 -576.685 1338.27C-586.524 1332.41 -594.949 1322.26 -601.948 1307.21C-608.947 1292.15 -614.507 1272.22 -618.632 1246.87Z" stroke="black"/>
</g>
</g>
<defs>
<filter id="filter0_d_1156_1028" x="-623.701" y="89.5742" width="2387.83" height="1263.39" filterUnits="userSpaceOnUse" color-interpolation-filters="sRGB">
<feFlood flood-opacity="0" result="BackgroundImageFix"/>
<feColorMatrix in="SourceAlpha" type="matrix" values="0 0 0 0 0 0 0 0 0 0 0 0 0 0 0 0 0 0 127 0" result="hardAlpha"/>
<feOffset dy="4"/>
<feGaussianBlur stdDeviation="2"/>
<feComposite in2="hardAlpha" operator="out"/>
<feColorMatrix type="matrix" values="0 0 0 0 0 0 0 0 0 0 0 0 0 0 0 0 0 0 0.25 0"/>
<feBlend mode="normal" in2="BackgroundImageFix" result="effect1_dropShadow_1156_1028"/>
<feBlend mode="normal" in="SourceGraphic" in2="effect1_dropShadow_1156_1028" result="shape"/>
</filter>
<linearGradient id="paint0_linear_1156_1028" x1="1636.47" y1="1062.32" x2="-567.86" y2="379.041" gradientUnits="userSpaceOnUse">
<stop stop-color="#5D50C6"/>
<stop offset="1" stop-color="#F85E9F"/>
</linearGradient>
<clipPath id="clip0_1156_1028">
<rect width="2506.2" height="958.638" fill="white" transform="translate(-757.527 407.875) rotate(-9.36634)"/>
</clipPath>
</defs>
</svg>
